<svg xmlns="http://www.w3.org/2000/svg" viewBox="0 0 256 256">
  <!-- Tileset for Jill of the Jungle -->
  <rect x="0" y="0" width="32" height="32" fill="#000000" />
  <rect x="32" y="0" width="32" height="32" fill="#654321" />
  <rect x="64" y="0" width="32" height="32" fill="#8B4513" />
  <rect x="96" y="0" width="32" height="32" fill="#FF0000" />
  <rect x="128" y="0" width="32" height="32" fill="#00FFFF" />
  <rect x="160" y="0" width="32" height="32" fill="#FFFF00" />
  <rect x="192" y="0" width="32" height="32" fill="#8B4513" />
  <rect x="224" y="0" width="32" height="32" fill="#00FF00" />
  
  <!-- Wall details -->
  <rect x="34" y="2" width="28" height="28" fill="#7B5427" stroke="#3D2817" stroke-width="1" />
  
  <!-- Platform details -->
  <rect x="66" y="2" width="28" height="28" fill="#9B6124" stroke="#5D3007" stroke-width="1" />
  <line x1="68" y1="8" x2="90" y2="8" stroke="#5D3007" stroke-width="1" />
  <line x1="70" y1="16" x2="88" y2="16" stroke="#5D3007" stroke-width="1" />
  <line x1="68" y1="24" x2="90" y2="24" stroke="#5D3007" stroke-width="1" />
  
  <!-- Spike details -->
  <path d="M100,28 L108,12 L116,28 Z" fill="#AA0000" />
  <path d="M110,28 L118,12 L126,28 Z" fill="#AA0000" />
  
  <!-- Gem details -->
  <circle cx="144" cy="16" r="10" fill="#00FFFF" />
  <circle cx="144" cy="16" r="6" fill="#00AAAA" />
  
  <!-- Key details -->
  <rect x="168" y="12" width="16" height="4" fill="#FFFF00" />
  <rect x="174" y="16" width="4" height="10" fill="#FFFF00" />
  <circle cx="176" cy="10" r="4" fill="#FFFF00" />
  
  <!-- Door details -->
  <rect x="194" y="2" width="28" height="28" fill="#8B4513" />
  <rect x="208" y="16" width="4" height="4" fill="#000000" />
  
  <!-- Exit details -->
  <rect x="226" y="2" width="28" height="28" fill="#00FF00" />
  <rect x="230" y="6" width="20" height="20" fill="#008800" />
</svg>
